<svg width="15" height="22" viewBox="0 0 15 22" fill="currentColor" xmlns="http://www.w3.org/2000/svg">
<mask id="path-1-inside-1_47_69" fill="currentColor">
<path d="M13.4418 6.34863H1.55772C1.486 6.34852 1.41497 6.36563 1.34868 6.39898C1.2824 6.43232 1.22216 6.48125 1.17143 6.54296C1.12069 6.60468 1.08045 6.67796 1.053 6.75863C1.02556 6.8393 1.01144 6.92576 1.01147 7.01307V20.9814C1.01144 21.0688 1.02555 21.1553 1.05298 21.236C1.08042 21.3168 1.12065 21.3901 1.17137 21.4519C1.2221 21.5137 1.28232 21.5628 1.34861 21.5962C1.4149 21.6297 1.48596 21.647 1.55772 21.647H13.4418C13.5136 21.647 13.5847 21.6298 13.651 21.5964C13.7173 21.563 13.7776 21.5139 13.8283 21.4521C13.879 21.3903 13.9193 21.3169 13.9467 21.2361C13.9741 21.1554 13.9882 21.0688 13.9881 20.9814V7.01279C13.9881 6.92548 13.974 6.83902 13.9466 6.75835C13.9192 6.67768 13.8789 6.6044 13.8282 6.5427C13.7774 6.481 13.7172 6.4321 13.6509 6.3988C13.5846 6.3655 13.5135 6.34845 13.4418 6.34863V6.34863Z"/>
</mask>
<path d="M1.55772 6.34863L1.55465 8.34863H1.55772V6.34863ZM1.01147 7.01307H3.01147L3.01147 7.01238L1.01147 7.01307ZM1.01147 20.9814L3.01147 20.9821V20.9814H1.01147ZM1.55772 21.647L1.5567 23.647H1.55772V21.647ZM13.4418 21.647L13.4429 19.647H13.4418V21.647ZM13.9881 20.9814H11.9881L11.9881 20.9835L13.9881 20.9814ZM13.9881 7.01279L11.9881 7.0114V7.01279H13.9881ZM13.4418 4.34863H1.55772V8.34863H13.4418V4.34863ZM1.5608 4.34864C1.16491 4.34803 0.785961 4.44325 0.449888 4.61231L2.24748 8.18564C2.04398 8.28801 1.8071 8.34902 1.55465 8.34863L1.5608 4.34864ZM0.449888 4.61231C0.115919 4.78032 -0.159504 5.01255 -0.3735 5.27285L2.71636 7.81308C2.60383 7.94995 2.44888 8.08432 2.24748 8.18564L0.449888 4.61231ZM-0.3735 5.27285C-0.587043 5.53259 -0.740611 5.82112 -0.8404 6.11441L2.94641 7.40285C2.90151 7.53481 2.82843 7.67676 2.71636 7.81308L-0.3735 5.27285ZM-0.8404 6.11441C-0.940255 6.40789 -0.98863 6.71259 -0.988525 7.01377L3.01147 7.01238C3.01152 7.13894 2.99137 7.27071 2.94641 7.40285L-0.8404 6.11441ZM-0.988525 7.01307V20.9814H3.01147V7.01307H-0.988525ZM-0.988525 20.9807C-0.988629 21.2817 -0.940335 21.5863 -0.840652 21.8796L2.94662 20.5925C2.99143 20.7244 3.01152 20.8559 3.01147 20.9821L-0.988525 20.9807ZM-0.840652 21.8796C-0.74103 22.1727 -0.587735 22.4611 -0.374604 22.7208L2.71735 20.1831C2.82903 20.3192 2.90187 20.4608 2.94662 20.5925L-0.840652 21.8796ZM-0.374604 22.7208C-0.161027 22.981 0.113864 23.2133 0.447251 23.3816L2.24998 19.8109C2.45078 19.9123 2.60522 20.0465 2.71735 20.1831L-0.374604 22.7208ZM0.447251 23.3816C0.78272 23.551 1.16113 23.6468 1.5567 23.647L1.55875 19.647C1.81079 19.6471 2.04709 19.7084 2.24998 19.8109L0.447251 23.3816ZM1.55772 23.647H13.4418V19.647H1.55772V23.647ZM13.4408 23.647C13.8368 23.6472 14.2156 23.5516 14.5515 23.3822L12.7505 19.8106C12.9538 19.7081 13.1905 19.6469 13.4429 19.647L13.4408 23.647ZM14.5515 23.3822C14.8853 23.2139 15.1605 22.9814 15.3743 22.7209L12.2823 20.1833C12.3946 20.0464 12.5493 19.912 12.7505 19.8106L14.5515 23.3822ZM15.3743 22.7209C15.5876 22.461 15.741 22.1724 15.8406 21.879L12.0528 20.5933C12.0976 20.4614 12.1705 20.3196 12.2823 20.1833L15.3743 22.7209ZM15.8406 21.879C15.9402 21.5854 15.9884 21.2806 15.9881 20.9794L11.9881 20.9835C11.9879 20.857 12.008 20.7253 12.0528 20.5933L15.8406 21.879ZM15.9881 20.9814V7.01279H11.9881V20.9814H15.9881ZM15.9881 7.01418C15.9883 6.71284 15.94 6.40796 15.8401 6.1143L12.0531 7.4024C12.0081 7.27008 11.988 7.13812 11.9881 7.0114L15.9881 7.01418ZM15.8401 6.1143C15.7402 5.82084 15.5866 5.53214 15.3728 5.27226L12.2835 7.81314C12.1713 7.67666 12.0981 7.53452 12.0531 7.4024L15.8401 6.1143ZM15.3728 5.27226C15.1586 5.01183 14.8829 4.77953 14.5486 4.6116L12.7532 8.186C12.5514 8.08467 12.3962 7.95017 12.2835 7.81314L15.3728 5.27226ZM14.5486 4.6116C14.2122 4.4426 13.8328 4.34762 13.4367 4.34864L13.447 8.34863C13.1942 8.34928 12.957 8.2884 12.7532 8.186L14.5486 4.6116Z" fill="currentColor" mask="url(#path-1-inside-1_47_69)"/>
<path d="M14.1708 1.85855H9.66234V1.01883C9.66246 0.931482 9.64844 0.84496 9.62106 0.764217C9.59369 0.683474 9.5535 0.610095 9.50281 0.548277C9.45212 0.48646 9.39191 0.437417 9.32563 0.403956C9.25935 0.370495 9.1883 0.353271 9.11655 0.353271H5.88321C5.81144 0.353271 5.74037 0.370491 5.67407 0.403945C5.60776 0.4374 5.54752 0.486433 5.49679 0.548243C5.44606 0.610054 5.40584 0.683429 5.37841 0.764175C5.35099 0.844921 5.3369 0.931455 5.33696 1.01883V1.85855H0.828965C0.757243 1.85844 0.686208 1.87555 0.619923 1.90889C0.553638 1.94224 0.493404 1.99117 0.442668 2.05288C0.391932 2.11459 0.35169 2.18788 0.324243 2.26855C0.296796 2.34922 0.282685 2.43568 0.282715 2.52299V4.46395C0.282685 4.55126 0.296796 4.63773 0.324243 4.71839C0.35169 4.79906 0.391932 4.87235 0.442668 4.93406C0.493404 4.99578 0.553638 5.0447 0.619923 5.07805C0.686208 5.11139 0.757243 5.1285 0.828965 5.12839H14.1708C14.2425 5.12858 14.3136 5.11152 14.3799 5.0782C14.4462 5.04488 14.5065 4.99595 14.5572 4.93423C14.608 4.8725 14.6482 4.79918 14.6756 4.71848C14.7031 4.63778 14.7171 4.55129 14.7171 4.46395V2.52299C14.7171 2.43566 14.7031 2.34916 14.6756 2.26846C14.6482 2.18776 14.608 2.11444 14.5572 2.05272C14.5065 1.99099 14.4462 1.94206 14.3799 1.90874C14.3136 1.87542 14.2425 1.85837 14.1708 1.85855Z" fill="currentColor"/>
</svg>